PathFileType	4	(X/Y/Z)	45_1_40_p0_0-139_filt_butterworth.trc
DataRate	CameraRate	NumFrames	NumMarkers	Units	OrigDataRate	OrigDataStartFrame	OrigNumFrames
52.0	52.0	6	27	m	52.0	69	139
Frame#	Time	RHip			RKnee			RAnkle			RBigToe			RSmallToe			RHeel			LHip			LKnee			LAnkle			LBigToe			LSmallToe			LHeel			Neck			Head			Nose			RShoulder			RElbow			RWrist			RThumb			RIndex			RPinky			LShoulder			LElbow			LWrist			LThumb			LIndex			LPinky			
		X1	Y1	Z1	X2	Y2	Z2	X3	Y3	Z3	X4	Y4	Z4	X5	Y5	Z5	X6	Y6	Z6	X7	Y7	Z7	X8	Y8	Z8	X9	Y9	Z9	X10	Y10	Z10	X11	Y11	Z11	X12	Y12	Z12	X13	Y13	Z13	X14	Y14	Z14	X15	Y15	Z15	X16	Y16	Z16	X17	Y17	Z17	X18	Y18	Z18	X19	Y19	Z19	X20	Y20	Z20	X21	Y21	Z21	X22	Y22	Z22	X23	Y23	Z23	X24	Y24	Z24	X25	Y25	Z25	X26	Y26	Z26	X27	Y27	Z27	
69	1.3269230769230769	0.5182530108477217	0.3804608160138382	0.8167370761901491	0.5420283789182248	0.5635588170774355	1.2596356404674525	0.6042534342981599	0.7537498833870844	1.6724441353316588	0.6044244458970067	0.691057066555184	1.7507053352436	0.6666398349940352	0.6841289339145719	1.737748505492832	0.5978560354974827	0.7957827337221446	1.7196088198034976	0.29888166943686395	0.4361191236104128	0.8298734683268619	0.36184828341068487	0.6643999405193968	1.2800313551209717	0.4118967269055891	0.833628503920093	1.7271807573780613	0.4339614085846548	0.6311718977192435	1.759916882937146	0.3832630362038028	0.712419072623211	1.776568811240349	0.4315465511211532	0.8669848075539144	1.7493126020136471	0.3988516524026677	0.19984963470332667	0.30793286538047043	0.42709240075701305	0.10127167806791572	0.08689778791602343	0.4278464669996497	0.06616507610324808	0.23495233899550302	0.5608194174880397	0.23339888051025764	0.3702863610562975	0.6477717975252976	0.34131354733407004	0.6160699792910026	0.6622221034799732	0.35844199068322075	0.9031819250586398	0.6039475719047644	0.3673521136108121	1.0236127503315318	0.6402334279974558	0.3428287419082232	1.0495087533518932	0.6729539018153454	0.3955840697900195	1.0236600998389014	0.2305496177382736	0.24980920679270197	0.37899776342441266	0.1877948186750522	0.4016629399384469	0.6257691931376274	0.18773573623508266	0.44824404011960717	0.8882784222413039	0.2198715021245874	0.5198230757387297	0.9928313259654163	0.2002912600823926	0.4670202455494705	1.0103037740671643	0.18749419316949698	0.45380604536786584	1.0020989907890625
70	1.3461538461538465	0.5164231746537494	0.38148725661621685	0.8168258232616477	0.543328426919046	0.5612117588409014	1.2601900648748812	0.6025267287856491	0.7531816037684214	1.672557890661474	0.6035517345871276	0.686341122341563	1.7499018242258588	0.6662711728694163	0.6820021040477302	1.7384129348479618	0.5975499505976489	0.8084730211024471	1.72189000269062	0.2979084049026536	0.43031775240469033	0.8306796643304366	0.36184416166376154	0.6643892535151527	1.2800803881020648	0.4116829000635725	0.8336946515307231	1.7281287584671343	0.43486838013044926	0.6364831708869658	1.7608057103641657	0.3832282184847394	0.7119570137279887	1.7764439840709965	0.4318947789557518	0.8687365656798648	1.750961646942104	0.3993563584052745	0.20040718675512365	0.30775670607715655	0.4316769733579703	0.09644428122038962	0.08786899332932163	0.42858211670235	0.06565948056801052	0.23677109136505137	0.5609631775726761	0.2334625450144061	0.37221526447695896	0.6477781880859023	0.34143036371466395	0.6161941439355924	0.662196203334	0.3584811474163677	0.9034621103401563	0.6039061424213711	0.3676444328484633	1.0248340432822984	0.6397258856467365	0.3421362350720906	1.0497456459503571	0.6727975127737795	0.3956875137048105	1.0238665371217501	0.23184156519958232	0.25071629365363424	0.3786698652285099	0.1869991512853684	0.40155726864485825	0.624413871439565	0.18383739345671224	0.430447986839241	0.887769179496855	0.21718313252810284	0.5123977932021505	0.99232317161426	0.19729664942179198	0.46346171521658197	1.0107063098653326	0.18106945119172096	0.4485509164520141	1.0044068368959456
71	1.3653846153846154	0.5157329472408273	0.38121787579375405	0.8166882929597961	0.5437513377573591	0.5610952161428577	1.2614451230939692	0.6013023431319733	0.7528618185818824	1.672649893500305	0.6030428379461766	0.6839065185076739	1.7494524867428263	0.665733399814213	0.6804423577781541	1.739049477452368	0.5973840975322011	0.8173049306558552	1.7232180598306948	0.29764748764280047	0.4296198734665899	0.8314382067306437	0.36184555099217935	0.6644106723211309	1.2801232679178944	0.4110729122001705	0.8319990824103876	1.7265477863967205	0.4356528408998073	0.6410045286236457	1.7614529078277394	0.3834621815147936	0.7120067715336779	1.7757979236877393	0.4324801368119606	0.8725673217499021	1.7517925016233244	0.3993647313665729	0.20049745911747635	0.3077344766663444	0.4356582806987418	0.09082259431404524	0.08949838779152838	0.4288511899591252	0.06635887895801827	0.2383871680404494	0.5610738331797565	0.23361769212506545	0.37307434004985107	0.6477931272589899	0.34165977993106333	0.6168591690064285	0.6621498930699634	0.35876064780988687	0.9044707261305716	0.6041739820855032	0.3667214369269707	1.0256921326676238	0.637787275192308	0.3394749573078568	1.0497075347982707	0.6724634574220587	0.39466602227617625	1.0247420078326082	0.23265755545906552	0.2511901889591925	0.3781083165730681	0.1845473650125525	0.40137379027157954	0.6233326735620529	0.1799261312440612	0.41673322619387365	0.8869845149127278	0.21394757801229625	0.4988187066793477	0.9929123768614428	0.19453383705308824	0.45927958037145733	1.0115390715021055	0.17409495197330666	0.4480563020677766	1.005884636863245
72	1.3846153846153846	0.515648516610126	0.38126610890720325	0.8163430566600445	0.5431648653350252	0.5616377693610392	1.2630359754059004	0.6009577605577059	0.7528860365176634	1.6727057091014608	0.6027449088079365	0.6829812534410565	1.7491607567700103	0.6652184550836977	0.6793741016379526	1.7393562742982758	0.597446541291539	0.8198413954003476	1.7232260239680512	0.2974107042969521	0.43034331647792345	0.8326978320158036	0.36184443584654824	0.6644455935266312	1.2801533817628712	0.40974539465150805	0.8295752837511181	1.7234498618615057	0.43604292415502155	0.6431688409553149	1.7619849191832304	0.3835121006453166	0.7128741951308837	1.7757668812925846	0.43311484992318716	0.8775448235479377	1.750984821759221	0.39922446265779277	0.2001404653138759	0.3077920792398694	0.43850877890353646	0.08638521922392417	0.09157291942617346	0.42975889855796257	0.07015781109340116	0.2392991805410406	0.5611208950588652	0.23378794455678764	0.37260094092683455	0.6478117745115477	0.34200447654214106	0.6180828017081674	0.6621008499551146	0.3591955007790435	0.9059089175441222	0.6051257270054278	0.3633941100041185	1.0258728726907735	0.6351714704049323	0.3355146462938375	1.049703589839861	0.6724484136185453	0.39155564008358407	1.0260189252809477	0.2332231783791899	0.24986681556482754	0.3772628203654274	0.18116008153328694	0.40091381865862596	0.6226074632304065	0.1749032459869005	0.4088026587767189	0.8861385933667496	0.20972890466210314	0.4799429996313998	0.9952082513192003	0.18941520702965417	0.4516833502708661	1.0135661253931252	0.16830904405881664	0.4486871487973813	1.006797559811778
73	1.4038461538461535	0.5162286720909545	0.3828174710352457	0.8160844555996413	0.542477859746858	0.5619012150024946	1.2641081439605293	0.6010583535453364	0.7530109615128158	1.6727348606605186	0.6025589166949064	0.6824782877921983	1.7490014303348476	0.6649921484209416	0.6790493290473996	1.739464741615049	0.5975963743819463	0.8192650477215093	1.7224162244497414	0.2971054155361582	0.43087334996889515	0.8347167597134186	0.36185958867046786	0.6645537657478429	1.2801299717213308	0.4081866353034686	0.8287606935394788	1.7220665806388034	0.43605936412526575	0.6428642645247353	1.763284996398545	0.3823162655330815	0.7117678091695769	1.7764350288838244	0.4338038689861281	0.8810790513071525	1.749938458868058	0.3991120320756446	0.19986280227882566	0.3078383826765511	0.44074204781479953	0.0846908810356812	0.09351808125195255	0.4317945118065463	0.07722059784842385	0.23945230180197627	0.5611341596688975	0.23388321935125095	0.37184594683976524	0.6478192465126682	0.34235427823571746	0.6192604417493687	0.6620815893936854	0.3595026599104176	0.9069357889308214	0.6065735361437395	0.3589953630105859	1.0259004895250647	0.6339563403857438	0.33213206056991507	1.049551405131341	0.6733747967108006	0.38728821312241524	1.0269199417202732	0.23446093069024376	0.24590755817640914	0.3765404503012624	0.17842193516801888	0.39997001472145494	0.6219538570994085	0.16814035288700366	0.4066420770023772	0.8860551913708036	0.20446157277255955	0.46016471923083174	0.9982375524003609	0.18185733368021284	0.44209854004589033	1.0164130584204984	0.16317878457648569	0.44945155117408175	1.008015768918365
74	1.4230769230769231	0.5182055969322801	0.3867700005114289	0.8160893083136588	0.5422408801030709	0.5619303863971549	1.2643315141042142	0.6011715919447606	0.753056221320261	1.6727130784641466	0.6023949032169291	0.681446367335263	1.7488234384749572	0.665123960921407	0.6794060576402255	1.7394829043754971	0.5976999715335495	0.8185538247753863	1.7221726154574872	0.29725411531410223	0.4322298393048237	0.8365372013044868	0.3619203954639769	0.6648628904590352	1.2799722802965334	0.40734865181721047	0.8297554116980539	1.7232610460407605	0.4355675157797141	0.6398571789526273	1.7657203832446682	0.37982198877952045	0.7063725066122293	1.7773994596013996	0.4344011122773602	0.8820819394684173	1.750006079102244	0.3992637947690765	0.20110318232074453	0.3078021065723862	0.4428444804284958	0.08547070003793789	0.0950019771173539	0.43485571951930796	0.0845082717311666	0.2391775342545831	0.5611281686227998	0.23391777449436835	0.37153184856738286	0.6478058191994713	0.3425450804336872	0.6197934764390066	0.6621581204060514	0.3595783285621186	0.9075238690907041	0.6081496529666466	0.35533557551886513	1.0264516627731055	0.6348781302045372	0.330006865534996	1.049001611490036	0.6749997032985198	0.38431012044837404	1.027340051307616	0.2363313338663522	0.24085543893825073	0.37643089255519274	0.17672364507771493	0.39813647961151793	0.6214840882962233	0.16088077716936008	0.40698743829944783	0.8875879368917	0.19771472298152248	0.442642911357397	1.0008431162095157	0.17405281963064162	0.43002133392348196	1.0188973554003329	0.15662415026293885	0.4520366205443384	1.0102571999723091
